<svg width="63" height="114" viewBox="0 0 63 114" fill="none" xmlns="http://www.w3.org/2000/svg">
<path d="M2.03815 110C1.91815 110 1.81615 109.958 1.73215 109.874C1.64815 109.79 1.60615 109.688 1.60615 109.568V97.85C1.60615 97.718 1.64215 97.61 1.71415 97.526C1.79815 97.442 1.90615 97.4 2.03815 97.4H6.70015C8.16415 97.4 9.31015 97.742 10.1381 98.426C10.9781 99.11 11.3981 100.082 11.3981 101.342C11.3981 102.218 11.1821 102.956 10.7501 103.556C10.3301 104.144 9.74215 104.57 8.98615 104.834L11.6141 109.424C11.6501 109.496 11.6681 109.562 11.6681 109.622C11.6681 109.73 11.6261 109.82 11.5421 109.892C11.4701 109.964 11.3861 110 11.2901 110H9.65215C9.46015 110 9.31015 109.958 9.20215 109.874C9.10615 109.79 9.01615 109.67 8.93215 109.514L6.61015 105.248H4.10815V109.568C4.10815 109.688 4.06615 109.79 3.98215 109.874C3.91015 109.958 3.80815 110 3.67615 110H2.03815ZM6.64615 103.214C7.36615 103.214 7.90615 103.052 8.26615 102.728C8.63815 102.404 8.82415 101.936 8.82415 101.324C8.82415 100.712 8.63815 100.238 8.26615 99.902C7.90615 99.566 7.36615 99.398 6.64615 99.398H4.10815V103.214H6.64615ZM14.1495 110C14.0295 110 13.9275 109.958 13.8435 109.874C13.7595 109.79 13.7175 109.688 13.7175 109.568V97.832C13.7175 97.7 13.7595 97.598 13.8435 97.526C13.9275 97.442 14.0295 97.4 14.1495 97.4H15.8415C15.9735 97.4 16.0755 97.442 16.1475 97.526C16.2315 97.598 16.2735 97.7 16.2735 97.832V109.568C16.2735 109.688 16.2315 109.79 16.1475 109.874C16.0755 109.958 15.9735 110 15.8415 110H14.1495ZM19.5284 110C19.4084 110 19.3064 109.958 19.2224 109.874C19.1384 109.79 19.0964 109.688 19.0964 109.568V97.85C19.0964 97.718 19.1324 97.61 19.2044 97.526C19.2884 97.442 19.3964 97.4 19.5284 97.4H23.9204C27.4484 97.4 29.2484 99.032 29.3204 102.296C29.3444 102.992 29.3564 103.46 29.3564 103.7C29.3564 103.928 29.3444 104.39 29.3204 105.086C29.2724 106.766 28.8224 108.008 27.9704 108.812C27.1184 109.604 25.7984 110 24.0104 110H19.5284ZM23.9204 107.93C24.9284 107.93 25.6544 107.708 26.0984 107.264C26.5424 106.808 26.7764 106.064 26.8004 105.032C26.8244 104.312 26.8364 103.862 26.8364 103.682C26.8364 103.49 26.8244 103.046 26.8004 102.35C26.7764 101.366 26.5244 100.64 26.0444 100.172C25.5764 99.704 24.8384 99.47 23.8304 99.47H21.5984V107.93H23.9204ZM32.1846 110C32.0646 110 31.9626 109.958 31.8786 109.874C31.7946 109.79 31.7526 109.688 31.7526 109.568V97.832C31.7526 97.7 31.7946 97.598 31.8786 97.526C31.9626 97.442 32.0646 97.4 32.1846 97.4H33.8766C34.0086 97.4 34.1106 97.442 34.1826 97.526C34.2666 97.598 34.3086 97.7 34.3086 97.832V109.568C34.3086 109.688 34.2666 109.79 34.1826 109.874C34.1106 109.958 34.0086 110 33.8766 110H32.1846ZM37.5815 110C37.4495 110 37.3415 109.964 37.2575 109.892C37.1735 109.808 37.1315 109.7 37.1315 109.568V97.85C37.1315 97.718 37.1735 97.61 37.2575 97.526C37.3415 97.442 37.4495 97.4 37.5815 97.4H39.0035C39.2555 97.4 39.4355 97.514 39.5435 97.742L43.0175 104.222L46.5275 97.742C46.6475 97.514 46.8275 97.4 47.0675 97.4H48.4715C48.6035 97.4 48.7115 97.442 48.7955 97.526C48.8795 97.61 48.9215 97.718 48.9215 97.85V109.568C48.9215 109.7 48.8795 109.808 48.7955 109.892C48.7115 109.964 48.6035 110 48.4715 110H46.9595C46.8395 110 46.7375 109.958 46.6535 109.874C46.5695 109.79 46.5275 109.688 46.5275 109.568V101.774L44.0075 106.58C43.8515 106.844 43.6475 106.976 43.3955 106.976H42.6575C42.4055 106.976 42.2015 106.844 42.0455 106.58L39.5255 101.774V109.568C39.5255 109.688 39.4835 109.79 39.3995 109.874C39.3275 109.958 39.2255 110 39.0935 110H37.5815ZM50.9474 110C50.8514 110 50.7614 109.964 50.6774 109.892C50.6054 109.82 50.5694 109.73 50.5694 109.622L50.6054 109.46L54.9434 97.85C55.0274 97.55 55.2374 97.4 55.5734 97.4H57.5354C57.8474 97.4 58.0574 97.55 58.1654 97.85L62.5034 109.46C62.5154 109.496 62.5214 109.55 62.5214 109.622C62.5214 109.73 62.4854 109.82 62.4134 109.892C62.3414 109.964 62.2574 110 62.1614 110H60.5954C60.4394 110 60.3194 109.964 60.2354 109.892C60.1514 109.82 60.0974 109.742 60.0734 109.658L59.2274 107.462H53.8814L53.0354 109.658C52.9394 109.886 52.7654 110 52.5134 110H50.9474ZM58.5974 105.392L56.5454 99.83L54.5114 105.392H58.5974Z" fill="white"/>
<mask id="mask0" mask-type="alpha" maskUnits="userSpaceOnUse" x="2" y="0" width="50" height="44">
<path fill-rule="evenodd" clip-rule="evenodd" d="M30.389 0.999268C30.318 0.999268 30 1.00527 30 1.00527L2 1.31827V43.3183H30V43.3833C30 43.3843 30.318 43.3883 30.389 43.3883C42.091 43.3883 51.58 33.8993 51.58 22.1943C51.58 10.4893 42.091 0.999268 30.389 0.999268Z" fill="white"/>
</mask>
<g mask="url(#mask0)">
<path opacity="0.858761" fill-rule="evenodd" clip-rule="evenodd" d="M30.389 0.999268C30.318 0.999268 30 1.00527 30 1.00527L2 1.31827V43.3183H30V43.3833C30 43.3843 30.318 43.3883 30.389 43.3883C42.091 43.3883 51.58 33.8993 51.58 22.1943C51.58 10.4893 42.091 0.999268 30.389 0.999268Z" fill="url(#paint0_linear)"/>
</g>
<mask id="mask1" mask-type="alpha" maskUnits="userSpaceOnUse" x="2" y="23" width="60" height="60">
<path fill-rule="evenodd" clip-rule="evenodd" d="M2 82.3183H61.123L2 23.7373V82.3183Z" fill="white"/>
</mask>
<g mask="url(#mask1)">
<path opacity="0.769787" fill-rule="evenodd" clip-rule="evenodd" d="M2 82.3183H61.123L2 23.7373V82.3183Z" fill="url(#paint1_linear)"/>
</g>
<defs>
<linearGradient id="paint0_linear" x1="2" y1="0.999268" x2="2" y2="43.3883" gradientUnits="userSpaceOnUse">
<stop stop-color="white"/>
<stop offset="1" stop-color="#F5F5F5"/>
</linearGradient>
<linearGradient id="paint1_linear" x1="2" y1="23.7373" x2="2" y2="82.3183" gradientUnits="userSpaceOnUse">
<stop stop-color="white"/>
<stop offset="1" stop-color="#F5F5F5"/>
</linearGradient>
</defs>
</svg>
